<svg width="8" height="14" viewBox="0 0 8 14" fill="none" xmlns="http://www.w3.org/2000/svg">
<path d="M0.992075 1.37768L6.47307 7.00043L0.992075 12.6232C0.89395 12.7236 0.839016 12.8585 0.839016 12.9989C0.839016 13.1394 0.89395 13.2742 0.992075 13.3747C1.03973 13.4233 1.09662 13.462 1.1594 13.4884C1.22219 13.5147 1.2896 13.5283 1.3577 13.5283C1.4258 13.5283 1.49321 13.5147 1.556 13.4884C1.61878 13.462 1.67567 13.4233 1.72332 13.3747L7.55532 7.39306C7.65772 7.28801 7.71502 7.14712 7.71502 7.00043C7.71502 6.85374 7.65772 6.71285 7.55532 6.60781L1.72445 0.626182C1.67675 0.577195 1.61973 0.538259 1.55674 0.511675C1.49375 0.485089 1.42607 0.471393 1.3577 0.471393C1.28933 0.471393 1.22165 0.485089 1.15866 0.511675C1.09567 0.538259 1.03864 0.577195 0.990949 0.626182C0.892824 0.726642 0.83789 0.861502 0.83789 1.00193C0.83789 1.14236 0.892824 1.27722 0.990949 1.37768L0.992075 1.37768Z" fill="white"/>
</svg>
