<svg width="16" height="9" viewBox="0 0 16 9" fill="none" xmlns="http://www.w3.org/2000/svg">
<path d="M8.45355 8.27488L15.0911 1.30862C15.2019 1.19239 15.2637 1.03796 15.2637 0.877373C15.2637 0.716784 15.2019 0.562359 15.0911 0.446124L15.0836 0.438623C15.0298 0.382079 14.9652 0.337054 14.8935 0.306288C14.8218 0.27552 14.7447 0.259654 14.6667 0.259654C14.5887 0.259654 14.5115 0.27552 14.4398 0.306288C14.3682 0.337054 14.3035 0.382079 14.2498 0.438624L7.9998 6.99863L1.7523 0.438625C1.69859 0.38208 1.63393 0.337055 1.56226 0.306289C1.49059 0.275522 1.41342 0.259655 1.33543 0.259655C1.25744 0.259655 1.18026 0.275522 1.10859 0.306289C1.03693 0.337055 0.972268 0.38208 0.918552 0.438625L0.911052 0.446125C0.800246 0.56236 0.738431 0.716786 0.738431 0.877374C0.738431 1.03796 0.800246 1.19239 0.911052 1.30862L7.54855 8.27488C7.60692 8.33614 7.67713 8.38491 7.75491 8.41824C7.83269 8.45157 7.91643 8.46875 8.00105 8.46875C8.08567 8.46875 8.16941 8.45157 8.24719 8.41824C8.32498 8.38491 8.39518 8.33614 8.45355 8.27488Z" fill="#969696"/>
</svg>
